# xmcd
#
# Track frame offsets:
#	150
#	13344
#	26523
#	39495
#	52482
#	66890
#	81348
#	91887
#	102537
#	115212
#	127884
#	138828
#	149681
#	166086
#	182496
#	195668
#	220236
#
# Disc length: 2969 seconds
#
# Revision: 1
# Processed by: cddbd v1.5.2PL0 Copyright (c) Steve Scherf et al.
# Submitted via: audiograbber 1.83.01
#
DISCID=f70b9711
DTITLE=Hal Leonard - Chicago Blues Vol. 9
DYEAR=1900
DGENRE=Blues
TTITLE0=Got My Mojo Working
TTITLE1=Got My Mojo Working P
TTITLE2=Hard Hearted Woman
TTITLE3=Hard Hearted Woman P
TTITLE4=Help Me
TTITLE5=Help Me P
TTITLE6=I Aint Got You
TTITLE7=I Aint Got You P
TTITLE8=Juke
TTITLE9=Juke P
TTITLE10=Messin With The Kids
TTITLE11=Messin With The Kids P
TTITLE12=One More Heartache
TTITLE13=One More Heartache P
TTITLE14=Walking By Myself
TTITLE15=Walking By Myself P
TTITLE16=Daten-CD
EXTD=Harmonica Playalong CD
EXTT0=
EXTT1=
EXTT2=
EXTT3=
EXTT4=
EXTT5=
EXTT6=
EXTT7=
EXTT8=
EXTT9=
EXTT10=
EXTT11=
EXTT12=
EXTT13=
EXTT14=
EXTT15=
EXTT16=
PLAYORDER=
